<svg width="16" height="18" viewBox="0 0 16 18" fill="none" xmlns="http://www.w3.org/2000/svg">
<path fill-rule="evenodd" clip-rule="evenodd" d="M12.465 4.49488C12.465 6.97302 10.4619 8.98933 8 8.98933C5.5381 8.98933 3.53499 6.97218 3.53499 4.49446C3.53499 2.01673 5.5381 0 8 0C10.4619 0 12.465 2.01673 12.465 4.49488ZM15.4397 14.2836L15.5 14.2108L15.4855 14.1175C15.1019 11.6018 13.7961 9.58084 11.8084 8.42585L11.6671 8.34386L11.5545 8.46267C10.6157 9.45367 9.35313 9.99958 7.99958 9.99958C6.64604 9.99958 5.3835 9.45409 4.4447 8.46267L4.33208 8.34386L4.19078 8.42585C2.20305 9.58084 0.897296 11.6018 0.51413 14.1175L0.5 14.2108L0.559844 14.2836C2.54425 16.6802 5.18651 18 8 18C10.8131 18 13.4558 16.6798 15.4397 14.2836Z" fill="#8E908F" fill-opacity="0.296301"/>
</svg>
