<svg width="113" height="15" viewBox="0 0 113 15" fill="none" xmlns="http://www.w3.org/2000/svg">
<path d="M10.3008 2.12598H5.91504V14H4.83398V2.12598H0.457031V1.20312H10.3008V2.12598ZM14.9326 14.1758C14.124 14.1758 13.3916 13.9766 12.7354 13.5781C12.085 13.1797 11.5781 12.626 11.2148 11.917C10.8516 11.2021 10.6699 10.4023 10.6699 9.51758V9.13965C10.6699 8.22559 10.8457 7.40234 11.1973 6.66992C11.5547 5.9375 12.0498 5.36328 12.6826 4.94727C13.3154 4.52539 14.001 4.31445 14.7393 4.31445C15.8936 4.31445 16.8076 4.70996 17.4814 5.50098C18.1611 6.28613 18.501 7.36133 18.501 8.72656V9.31543H11.7158V9.51758C11.7158 10.5957 12.0234 11.4951 12.6387 12.2158C13.2598 12.9307 14.0391 13.2881 14.9766 13.2881C15.5391 13.2881 16.0342 13.1855 16.4619 12.9805C16.8955 12.7754 17.2881 12.4473 17.6396 11.9961L18.2988 12.4971C17.5254 13.6162 16.4033 14.1758 14.9326 14.1758ZM14.7393 5.21094C13.9482 5.21094 13.2803 5.50098 12.7354 6.08105C12.1963 6.66113 11.8682 7.44043 11.751 8.41895H17.4551V8.30469C17.4258 7.39062 17.165 6.64648 16.6729 6.07227C16.1807 5.49805 15.5361 5.21094 14.7393 5.21094ZM26.5518 14C26.4463 13.7012 26.3789 13.2588 26.3496 12.6729C25.9805 13.1533 25.5088 13.5254 24.9346 13.7891C24.3662 14.0469 23.7627 14.1758 23.124 14.1758C22.21 14.1758 21.4688 13.9209 20.9004 13.4111C20.3379 12.9014 20.0566 12.2568 20.0566 11.4775C20.0566 10.5518 20.4404 9.81934 21.208 9.28027C21.9814 8.74121 23.0566 8.47168 24.4336 8.47168H26.3408V7.39062C26.3408 6.71094 26.1299 6.17773 25.708 5.79102C25.292 5.39844 24.6826 5.20215 23.8799 5.20215C23.1475 5.20215 22.541 5.38965 22.0605 5.76465C21.5801 6.13965 21.3398 6.59082 21.3398 7.11816L20.2852 7.10938C20.2852 6.35352 20.6367 5.7002 21.3398 5.14941C22.043 4.59277 22.9072 4.31445 23.9326 4.31445C24.9932 4.31445 25.8281 4.58105 26.4375 5.11426C27.0527 5.6416 27.3691 6.37988 27.3867 7.3291V11.8291C27.3867 12.749 27.4834 13.4375 27.6768 13.8945V14H26.5518ZM23.2471 13.2441C23.9502 13.2441 24.5771 13.0742 25.1279 12.7344C25.6846 12.3945 26.0889 11.9404 26.3408 11.3721V9.28027H24.46C23.4111 9.29199 22.5908 9.48535 21.999 9.86035C21.4072 10.2295 21.1113 10.7393 21.1113 11.3896C21.1113 11.9229 21.3076 12.3652 21.7002 12.7168C22.0986 13.0684 22.6143 13.2441 23.2471 13.2441ZM33.7148 13.2881C34.4473 13.2881 35.0596 13.083 35.5518 12.6729C36.0498 12.2568 36.3193 11.7207 36.3604 11.0645H37.3711C37.3418 11.6445 37.1602 12.1748 36.8262 12.6553C36.4922 13.1299 36.0469 13.502 35.4902 13.7715C34.9395 14.041 34.3477 14.1758 33.7148 14.1758C32.4668 14.1758 31.4766 13.7422 30.7441 12.875C30.0176 12.0078 29.6543 10.8418 29.6543 9.37695V9.06055C29.6543 8.12305 29.8184 7.29395 30.1465 6.57324C30.4746 5.85254 30.9434 5.2959 31.5527 4.90332C32.168 4.51074 32.8857 4.31445 33.7061 4.31445C34.749 4.31445 35.6074 4.625 36.2812 5.24609C36.9609 5.86719 37.3242 6.68457 37.3711 7.69824H36.3604C36.3135 6.9541 36.0439 6.35352 35.5518 5.89648C35.0654 5.43945 34.4502 5.21094 33.7061 5.21094C32.7568 5.21094 32.0186 5.55371 31.4912 6.23926C30.9697 6.9248 30.709 7.88574 30.709 9.12207V9.42969C30.709 10.6426 30.9697 11.5889 31.4912 12.2686C32.0186 12.9482 32.7598 13.2881 33.7148 13.2881ZM40.5264 6.09863C40.8721 5.53027 41.3145 5.09082 41.8535 4.78027C42.3926 4.46973 42.9814 4.31445 43.6201 4.31445C44.6396 4.31445 45.3984 4.60156 45.8965 5.17578C46.3945 5.75 46.6465 6.61133 46.6523 7.75977V14H45.6064V7.75098C45.6006 6.90137 45.4189 6.26855 45.0615 5.85254C44.71 5.43652 44.1445 5.22852 43.3652 5.22852C42.7148 5.22852 42.1377 5.43359 41.6338 5.84375C41.1357 6.24805 40.7666 6.7959 40.5264 7.4873V14H39.4805V0.5H40.5264V6.09863ZM53.042 14.1758C52.2334 14.1758 51.501 13.9766 50.8447 13.5781C50.1943 13.1797 49.6875 12.626 49.3242 11.917C48.9609 11.2021 48.7793 10.4023 48.7793 9.51758V9.13965C48.7793 8.22559 48.9551 7.40234 49.3066 6.66992C49.6641 5.9375 50.1592 5.36328 50.792 4.94727C51.4248 4.52539 52.1104 4.31445 52.8486 4.31445C54.0029 4.31445 54.917 4.70996 55.5908 5.50098C56.2705 6.28613 56.6104 7.36133 56.6104 8.72656V9.31543H49.8252V9.51758C49.8252 10.5957 50.1328 11.4951 50.748 12.2158C51.3691 12.9307 52.1484 13.2881 53.0859 13.2881C53.6484 13.2881 54.1436 13.1855 54.5713 12.9805C55.0049 12.7754 55.3975 12.4473 55.749 11.9961L56.4082 12.4971C55.6348 13.6162 54.5127 14.1758 53.042 14.1758ZM52.8486 5.21094C52.0576 5.21094 51.3896 5.50098 50.8447 6.08105C50.3057 6.66113 49.9775 7.44043 49.8604 8.41895H55.5645V8.30469C55.5352 7.39062 55.2744 6.64648 54.7822 6.07227C54.29 5.49805 53.6455 5.21094 52.8486 5.21094ZM63.0527 5.38672C62.8301 5.3457 62.5928 5.3252 62.3408 5.3252C61.6846 5.3252 61.1279 5.50977 60.6709 5.87891C60.2197 6.24219 59.8975 6.77246 59.7041 7.46973V14H58.6582V4.49023H59.6865L59.7041 6.00195C60.2607 4.87695 61.1543 4.31445 62.3848 4.31445C62.6777 4.31445 62.9092 4.35254 63.0791 4.42871L63.0527 5.38672ZM68.6953 14V1.20312H72.8174C73.9482 1.20312 74.9648 1.46094 75.8672 1.97656C76.7695 2.48633 77.4727 3.20996 77.9766 4.14746C78.4863 5.0791 78.7441 6.125 78.75 7.28516V7.87402C78.75 9.0459 78.501 10.0977 78.0029 11.0293C77.5107 11.9551 76.8135 12.6816 75.9111 13.209C75.0146 13.7305 74.0127 13.9941 72.9053 14H68.6953ZM71.7803 3.58496V11.627H72.8525C73.7373 11.627 74.417 11.3135 74.8916 10.6865C75.3662 10.0537 75.6035 9.11621 75.6035 7.87402V7.32031C75.6035 6.08398 75.3662 5.15234 74.8916 4.52539C74.417 3.89844 73.7256 3.58496 72.8174 3.58496H71.7803ZM87.4072 11.6094H83.1797L82.4414 14H79.1455L83.8389 1.20312H86.7393L91.4678 14H88.1543L87.4072 11.6094ZM83.918 9.22754H86.6689L85.2891 4.78906L83.918 9.22754ZM101.399 3.58496H97.5586V14H94.4736V3.58496H90.7031V1.20312H101.399V3.58496ZM108.923 11.6094H104.695L103.957 14H100.661L105.354 1.20312H108.255L112.983 14H109.67L108.923 11.6094ZM105.434 9.22754H108.185L106.805 4.78906L105.434 9.22754Z" fill="white"/>
</svg>
